<svg t="1568776292288" class="icon" viewBox="0 0 1024 1024" version="1.1" xmlns="http://www.w3.org/2000/svg" p-id="2783" width="200" height="200"><path d="M660 419h-28v-53h-48v53h-91v23h91v167h48V442h28zM936.2 389H830v-23h-48v23h-58v-9h-45v78h103v36h-75v23h75v83h48v-83h72v-23h-72v-36h79.1s12.5-11.6 20-29.7c8.1-19.6 7.1-39.3 7.1-39.3zM724 439v-31h164v31H724z" fill="#003F8A" p-id="2784"></path><path d="M506.5 366h-50.1c-0.9 50-71.5 90.7-71.5 90.7l5.9 13.5c16.7-5.1 32.2-10.8 43.2-16.9V609h47V419.8c25-28.1 25.5-53.8 25.5-53.8z" fill="#003F8A" p-id="2785"></path><path d="M534.298 451.982l41.72 41.72-41.72 41.718-41.719-41.719zM883.904 524.563l28.85 28.85-28.85 28.85-28.85-28.85z" fill="#ED7635" p-id="2786"></path><path d="M389 425v-22H286v-37h-44v37H136v22h106v39h-75v22h147.2c-5 22-28.4 68.7-73.6 109.6-51.4 46.4-115.7 39-137.1 3.7-21.4-35.3 33.9-63.9 33.9-63.9s-76.6 11-51.5 70.6c28.4 67.6 130 45.1 130 45.1 130.9-51.1 150-187.2 150-187.2H286v-39h103z" fill="#003F8A" p-id="2787"></path><path d="M1008.8 567.8l-72.6 82.6s-219 23.2-360.1 13-247-48.3-352.9-103.1-138.1 3.3-139.9 9.4c-1.8 6.1-6.6 38.1 26.7 66.8 0 0-60.4-22.3-40-83.2s123.5-36.7 148.6-28.8 159.7 69.2 247.9 79.4 241.4 3.7 339.4-9.3 202.9-26.8 202.9-26.8z" fill="#ED7635" p-id="2788"></path><path d="M952.2 384.7V365h-8.5v-2.6h20.4v2.6h-8.5v19.6h-3.4zM967.6 384.7v-22.2h5.1l6.1 15.7c0.6 1.5 1 2.6 1.2 3.3 0.3-0.8 0.8-2 1.4-3.6l6.2-15.5h4.6v22.2h-3.3V366l-7.5 18.6h-3.1l-7.5-18.9v18.9h-3.2z" fill="" p-id="2789"></path></svg>