<svg t="1568776434120" class="icon" viewBox="0 0 1234 1024" version="1.1" xmlns="http://www.w3.org/2000/svg" p-id="5178" width="200" height="200"><path d="M837.105106 330.221625c13.163386 0 25.993522 0.578287 39.068695 1.813274C846.651747 144.503203 662.746598 0 440.184417 0 197.058733 0 0 172.506029 0 385.198121c0 118.891939 61.680707 225.237985 158.411502 296.004662-12.340062 61.847332-27.718582 143.189805-25.483845 140.474796 3.371709-1.234986 88.419141-48.438909 141.876407-79.391979A496.93498 496.93498 0 0 0 440.184417 770.396241c6.16513 0 12.173437-0.166625 18.338567-0.33325a328.084903 328.084903 0 0 1-10.360163-82.24421c-0.078412-197.460594 174.035059-357.597156 388.942285-357.597156z m-224.042204-125.752974a55.025503 55.025503 0 1 1-55.025503 54.937289 54.947091 54.947091 0 0 1 55.025503-54.937289zM275.117711 314.509855a55.025503 55.025503 0 1 1 55.025503-55.103915 55.025503 55.025503 0 0 1-55.025503 55.103915z m958.888482 361.478541c0-177.985055-168.850077-322.243222-377.180511-322.243221s-377.356937 144.34638-377.356937 322.243221 168.93829 322.409847 377.356937 322.409847a430.598571 430.598571 0 0 0 158.783958-29.933716c49.762108 26.562008 103.964287 54.525627 106.669495 55.348951 1.891685 2.058311-8.821331-49.987542-20.396878-102.562675 80.744583-59.387161 132.123935-147.061389 132.123936-245.262407z m-518.704065-70.737273a55.025503 55.025503 0 1 1 54.937289-54.937289 55.025503 55.025503 0 0 1-54.937289 54.937289z m275.029498 0a55.025503 55.025503 0 1 1 55.103914-54.937289 55.07451 55.07451 0 0 1-55.103914 54.937289z" fill="#AEE681" p-id="5179"></path><path d="M715.302128 605.251123a55.025503 55.025503 0 1 1 54.937289-54.937289 55.025503 55.025503 0 0 1-54.937289 54.937289z" fill="#57A527" p-id="5180"></path><path d="M275.117711 314.509855a55.025503 55.025503 0 1 1 55.025503-55.103915 55.025503 55.025503 0 0 1-55.025503 55.103915zM613.062902 204.468651a55.025503 55.025503 0 1 1-55.025503 54.937289 54.947091 54.947091 0 0 1 55.025503-54.937289zM990.331626 605.251123a55.025503 55.025503 0 1 1 55.103914-54.937289 55.07451 55.07451 0 0 1-55.103914 54.937289z" fill="#57A527" p-id="5181"></path></svg>